<svg xmlns="http://www.w3.org/2000/svg" width="186" height="34.455" viewBox="0 0 186 34.455">
  <g id="logo" transform="translate(73.136 17.453)">
    <g id="Group_4" data-name="Group 4" transform="translate(-73.136 -17.453)">
      <g id="Group_3" data-name="Group 3" transform="translate(49.45 3.548)">
        <path id="Path_1" data-name="Path 1" d="M27.34,22.318H22.89a.869.869,0,0,1-.89-.89h0V-3.11A.869.869,0,0,1,22.89-4h4.45a.869.869,0,0,1,.89.89h0V21.428c.127.509-.381.89-.89.89Z" transform="translate(12.074 4.641)" fill="#fff"/>
        <path id="Path_2" data-name="Path 2" d="M59.283,15.462a.908.908,0,0,1,.381,1.271.125.125,0,0,1-.127.127,13.958,13.958,0,0,1-11.7,5.976A13.685,13.685,0,0,1,33.6,9.614V8.978C33.6,1.222,39.576-4.5,47.84-4.5A14.455,14.455,0,0,1,59.664,1.222a.849.849,0,0,1-.127,1.271.125.125,0,0,0-.127.127L55.723,4.782a.986.986,0,0,1-1.271-.254A7.955,7.955,0,0,0,43.263,2.875a7.821,7.821,0,0,0,4.45,14.113h.127a7.381,7.381,0,0,0,6.484-3.306.955.955,0,0,1,1.271-.254Z" transform="translate(15.222 4.504)" fill="#fff"/>
        <path id="Path_3" data-name="Path 3" d="M82.175,1.821H74.8a.869.869,0,0,0-.89.89h0V21.274a.869.869,0,0,1-.89.89H68.444a.869.869,0,0,1-.89-.89h0V2.711a.869.869,0,0,0-.89-.89H59.29a.869.869,0,0,1-.89-.89h0V-3.01a.869.869,0,0,1,.89-.89H82.557a.869.869,0,0,1,.89.89h0V.931C83.065,1.313,82.684,1.821,82.175,1.821Z" transform="translate(21.953 4.668)" fill="#fff"/>
        <path id="Path_4" data-name="Path 4" d="M19.23,1.821H11.856a.869.869,0,0,0-.89.89V21.274a.869.869,0,0,1-.89.89h-4.7a.869.869,0,0,1-.89-.89V2.711a.869.869,0,0,0-.89-.89h-7.5A.869.869,0,0,1-4.8.931V-3.01a.869.869,0,0,1,.89-.89H19.357a.869.869,0,0,1,.89.89V.931C20.247,1.313,19.738,1.694,19.23,1.821Z" transform="translate(4.8 4.668)" fill="#fff"/>
        <path id="Path_5" data-name="Path 5" d="M108.435,9.2a13.62,13.62,0,0,1-13.6,13.6A13.729,13.729,0,0,1,81.1,9.2,13.62,13.62,0,0,1,94.7-4.4,13.729,13.729,0,0,1,108.435,9.2Zm-21.487,0a7.756,7.756,0,1,0,15.511,0,7.756,7.756,0,1,0-15.511,0Z" transform="translate(28.114 4.532)" fill="#fff"/>
      </g>
      <path id="Path_6" data-name="Path 6" d="M38.651,5.2H30.387a3.761,3.761,0,0,0-1.271.254L22.123,8a5.939,5.939,0,0,1-2.161.381A6.458,6.458,0,0,1,17.8,8L10.807,5.454A4.517,4.517,0,0,0,9.536,5.2H0L2.543,9.777h0A3.7,3.7,0,0,0,4.7,11.557L11.7,14.1a6.589,6.589,0,0,1,4.323,6.1V32.917l3.941,6.738h0L22,36.222,23.9,32.917V20.2a6.3,6.3,0,0,1,4.323-6.1l5.213-1.907,1.78-.636.509-.254a4.383,4.383,0,0,0,1.526-1.526L39.922,5.2ZM36.235,9.4a2.969,2.969,0,0,1-1.526,1.271L27.717,13.21A7.675,7.675,0,0,0,22.758,20.2v12.46l-2.924,5.086h0V12.828L38.27,5.836Z" transform="translate(0 -5.2)" fill="#fff"/>
    </g>
  </g>
</svg>
