<svg id="Icon_feather-arrow-up-right" data-name="Icon feather-arrow-up-right" xmlns="http://www.w3.org/2000/svg" width="18.979" height="18.979" viewBox="0 0 18.979 18.979">
  <path id="Caminho_1" data-name="Caminho 1" d="M26.4,9a1.582,1.582,0,0,1,1.118,2.7L11.7,27.516a1.582,1.582,0,0,1-2.237-2.237L25.279,9.463A1.577,1.577,0,0,1,26.4,9Z" transform="translate(-9 -9)" fill="#06d59f"/>
  <path id="Caminho_2" data-name="Caminho 2" d="M10.582,9a1.582,1.582,0,0,1,1.582,1.582V24.816H26.4a1.582,1.582,0,1,1,0,3.163H10.582A1.582,1.582,0,0,1,9,26.4V10.582A1.582,1.582,0,0,1,10.582,9Z" transform="translate(-9 -9)" fill="#06d59f"/>
</svg>
