<svg xmlns="http://www.w3.org/2000/svg" width="27.5" height="27.5" viewBox="0 0 27.5 27.5">
  <g id="Icon_feather-arrow-up-circle" data-name="Icon feather-arrow-up-circle" transform="translate(29 29) rotate(180)">
    <path id="Caminho_7" data-name="Caminho 7" d="M15.25,1.5A13.753,13.753,0,0,1,20.6,27.919,13.753,13.753,0,0,1,9.9,2.581,13.665,13.665,0,0,1,15.25,1.5Zm0,25A11.25,11.25,0,1,0,7.3,23.2,11.176,11.176,0,0,0,15.25,26.5Z" fill="#e23161"/>
    <path id="Caminho_8" data-name="Caminho 8" d="M21.75,18a1.246,1.246,0,0,1-.884-.366L16.75,13.518l-4.116,4.116a1.25,1.25,0,1,1-1.768-1.768l5-5a1.25,1.25,0,0,1,1.768,0l5,5A1.25,1.25,0,0,1,21.75,18Z" transform="translate(-1.5 -1.5)" fill="#e23161"/>
    <path id="Caminho_9" data-name="Caminho 9" d="M17.75,23a1.25,1.25,0,0,1-1.25-1.25v-10a1.25,1.25,0,0,1,2.5,0v10A1.25,1.25,0,0,1,17.75,23Z" transform="translate(-2.5 -1.5)" fill="#e23161"/>
  </g>
</svg>
