<svg id="Icon_feather-arrow-up-right" data-name="Icon feather-arrow-up-right" xmlns="http://www.w3.org/2000/svg" width="18.979" height="18.979" viewBox="0 0 18.979 18.979">
  <path id="Caminho_1" data-name="Caminho 1" d="M10.582,27.979a1.582,1.582,0,0,1-1.118-2.7L25.279,9.463A1.582,1.582,0,0,1,27.516,11.7L11.7,27.516A1.577,1.577,0,0,1,10.582,27.979Z" transform="translate(-9 -9)" fill="#e23161"/>
  <path id="Caminho_2" data-name="Caminho 2" d="M26.4,27.979A1.582,1.582,0,0,1,24.816,26.4V12.163H10.582a1.582,1.582,0,1,1,0-3.163H26.4a1.582,1.582,0,0,1,1.582,1.582V26.4A1.582,1.582,0,0,1,26.4,27.979Z" transform="translate(-9 -9)" fill="#e23161"/>
</svg>
